HIERARCHY
ROOT Root
{
  OFFSET 0.0 0.0 0.0
  CHANNELS 6 Xposition Yposition Zposition Zrotation Yrotation Xrotation
  JOINT Hips
  {
    OFFSET 0.0 100.0 0.0
    CHANNELS 6 Xposition Yposition Zposition Zrotation Yrotation Xrotation
    JOINT Spine1
    {
      OFFSET 5.003913 -0.037094 -0.013727
      CHANNELS 3 Zrotation Yrotation Xrotation
      JOINT Spine2
      {
        OFFSET 7.125363 -1e-06 0.0
        CHANNELS 3 Zrotation Yrotation Xrotation
        JOINT Chest
        {
          OFFSET 7.594027 1e-06 0.0
          CHANNELS 3 Zrotation Yrotation Xrotation
          JOINT Neck1
          {
            OFFSET 26.313086 -0.460272 -0.181672
            CHANNELS 3 Zrotation Yrotation Xrotation
            JOINT Neck2
            {
              OFFSET 8.045911 0.0 0.0
              CHANNELS 3 Zrotation Yrotation Xrotation
              JOINT Head
              {
                OFFSET 6.432774 0.0 0.0
                CHANNELS 3 Zrotation Yrotation Xrotation
                JOINT HeadEnd
                {
                  OFFSET 16.169773 0.06451 0.00362
                  CHANNELS 3 Zrotation Yrotation Xrotation
                }
                JOINT Jaw
                {
                  OFFSET 0.108741 3.12938 0.002639
                  CHANNELS 3 Zrotation Yrotation Xrotation
                }
                JOINT LeftEye
                {
                  OFFSET 4.45173 8.166359 3.206392
                  CHANNELS 3 Zrotation Yrotation Xrotation
                }
                JOINT RightEye
                {
                  OFFSET 4.436895 8.135758 -3.222429
                  CHANNELS 3 Zrotation Yrotation Xrotation
                }
              }
            }
          }
          JOINT LeftShoulder
          {
            OFFSET 23.218927 5.195579 1.621656
            CHANNELS 3 Zrotation Yrotation Xrotation
            JOINT LeftArm
            {
              OFFSET 15.902118 2e-06 -2e-06
              CHANNELS 3 Zrotation Yrotation Xrotation
              JOINT LeftForeArm
              {
                OFFSET 28.739307 0.0 -1e-06
                CHANNELS 3 Zrotation Yrotation Xrotation
                JOINT LeftHand
                {
                  OFFSET 27.093981 -4e-06 0.0
                  CHANNELS 3 Zrotation Yrotation Xrotation
                  JOINT LeftHandThumb1
                  {
                    OFFSET 2.276781 3.380274 0.83384
                    CHANNELS 3 Zrotation Yrotation Xrotation
                    JOINT LeftHandThumb2
                    {
                      OFFSET 4.705309 -1e-06 -1e-06
                      CHANNELS 3 Zrotation Yrotation Xrotation
                      JOINT LeftHandThumb3
                      {
                        OFFSET 2.798515 0.0 3e-06
                        CHANNELS 3 Zrotation Yrotation Xrotation
                        JOINT LeftHandThumbEnd
                        {
                          OFFSET 3.180793 4e-06 -4e-06
                          CHANNELS 3 Zrotation Yrotation Xrotation
                        }
                      }
                    }
                  }
                  JOINT LeftHandIndex1
                  {
                    OFFSET 3.247786 2.352677 0.137192
                    CHANNELS 3 Zrotation Yrotation Xrotation
                    JOINT LeftHandIndex2
                    {
                      OFFSET 6.367095 1e-06 0.0
                      CHANNELS 3 Zrotation Yrotation Xrotation
                      JOINT LeftHandIndex3
                      {
                        OFFSET 3.662364 0.0 0.0
                        CHANNELS 3 Zrotation Yrotation Xrotation
                        JOINT LeftHandIndex4
                        {
                          OFFSET 2.329242 4e-06 -4e-06
                          CHANNELS 3 Zrotation Yrotation Xrotation
                          JOINT LeftHandIndexEnd
                          {
                            OFFSET 2.767823 1e-06 0.0
                            CHANNELS 3 Zrotation Yrotation Xrotation
                          }
                        }
                      }
                    }
                  }
                  JOINT LeftHandMiddle1
                  {
                    OFFSET 3.163612 0.945023 -0.406112
                    CHANNELS 3 Zrotation Yrotation Xrotation
                    JOINT LeftHandMiddle2
                    {
                      OFFSET 6.276789 3e-06 0.0
                      CHANNELS 3 Zrotation Yrotation Xrotation
                      JOINT LeftHandMiddle3
                      {
                        OFFSET 4.35652 -1e-06 4e-06
                        CHANNELS 3 Zrotation Yrotation Xrotation
                        JOINT LeftHandMiddle4
                        {
                          OFFSET 2.996877 0.0 8e-06
                          CHANNELS 3 Zrotation Yrotation Xrotation
                          JOINT LeftHandMiddleEnd
                          {
                            OFFSET 2.323256 3e-06 -4e-06
                            CHANNELS 3 Zrotation Yrotation Xrotation
                          }
                        }
                      }
                    }
                  }
                  JOINT LeftHandRing1
                  {
                    OFFSET 2.882606 -0.309162 0.107445
                    CHANNELS 3 Zrotation Yrotation Xrotation
                    JOINT LeftHandRing2
                    {
                      OFFSET 6.033198 0.0 4e-06
                      CHANNELS 3 Zrotation Yrotation Xrotation
                      JOINT LeftHandRing3
                      {
                        OFFSET 4.350578 3e-06 0.0
                        CHANNELS 3 Zrotation Yrotation Xrotation
                        JOINT LeftHandRing4
                        {
                          OFFSET 2.651321 2e-06 -7e-06
                          CHANNELS 3 Zrotation Yrotation Xrotation
                          JOINT LeftHandRingEnd
                          {
                            OFFSET 1.937663 1e-06 -4e-06
                            CHANNELS 3 Zrotation Yrotation Xrotation
                          }
                        }
                      }
                    }
                  }
                  JOINT LeftHandPinky1
                  {
                    OFFSET 2.865315 -1.525436 0.575687
                    CHANNELS 3 Zrotation Yrotation Xrotation
                    JOINT LeftHandPinky2
                    {
                      OFFSET 5.54936 1e-06 -8e-06
                      CHANNELS 3 Zrotation Yrotation Xrotation
                      JOINT LeftHandPinky3
                      {
                        OFFSET 3.070974 0.0 -4e-06
                        CHANNELS 3 Zrotation Yrotation Xrotation
                        JOINT LeftHandPinky4
                        {
                          OFFSET 1.549672 1e-06 0.0
                          CHANNELS 3 Zrotation Yrotation Xrotation
                          JOINT LeftHandPinkyEnd
                          {
                            OFFSET 1.952123 0.0 0.0
                            CHANNELS 3 Zrotation Yrotation Xrotation
                          }
                        }
                      }
                    }
                  }
                }
              }
            }
          }
          JOINT RightShoulder
          {
            OFFSET 23.161716 5.296122 -1.380114
            CHANNELS 3 Zrotation Yrotation Xrotation
            JOINT RightArm
            {
              OFFSET -16.027195 -2e-06 1.1e-05
              CHANNELS 3 Zrotation Yrotation Xrotation
              JOINT RightForeArm
              {
                OFFSET -28.736639 4e-06 2e-06
                CHANNELS 3 Zrotation Yrotation Xrotation
                JOINT RightHand
                {
                  OFFSET -27.133619 6e-06 0.0
                  CHANNELS 3 Zrotation Yrotation Xrotation
                  JOINT RightHandThumb1
                  {
                    OFFSET -2.274328 -3.351035 -0.83067
                    CHANNELS 3 Zrotation Yrotation Xrotation
                    JOINT RightHandThumb2
                    {
                      OFFSET -4.703594 -3e-06 2e-06
                      CHANNELS 3 Zrotation Yrotation Xrotation
                      JOINT RightHandThumb3
                      {
                        OFFSET -2.794935 -4e-06 -3e-06
                        CHANNELS 3 Zrotation Yrotation Xrotation
                        JOINT RightHandThumbEnd
                        {
                          OFFSET -3.183852 4e-06 1e-06
                          CHANNELS 3 Zrotation Yrotation Xrotation
                        }
                      }
                    }
                  }
                  JOINT RightHandIndex1
                  {
                    OFFSET -3.253496 -2.33755 -0.127667
                    CHANNELS 3 Zrotation Yrotation Xrotation
                    JOINT RightHandIndex2
                    {
                      OFFSET -6.344434 0.0 0.0
                      CHANNELS 3 Zrotation Yrotation Xrotation
                      JOINT RightHandIndex3
                      {
                        OFFSET -3.654871 0.0 -8e-06
                        CHANNELS 3 Zrotation Yrotation Xrotation
                        JOINT RightHandIndex4
                        {
                          OFFSET -2.327586 -1e-06 0.0
                          CHANNELS 3 Zrotation Yrotation Xrotation
                          JOINT RightHandIndexEnd
                          {
                            OFFSET -2.770001 3e-06 8e-06
                            CHANNELS 3 Zrotation Yrotation Xrotation
                          }
                        }
                      }
                    }
                  }
                  JOINT RightHandMiddle1
                  {
                    OFFSET -3.168223 -0.944764 0.411762
                    CHANNELS 3 Zrotation Yrotation Xrotation
                    JOINT RightHandMiddle2
                    {
                      OFFSET -6.266691 -1e-06 -4e-06
                      CHANNELS 3 Zrotation Yrotation Xrotation
                      JOINT RightHandMiddle3
                      {
                        OFFSET -4.348901 0.0 0.0
                        CHANNELS 3 Zrotation Yrotation Xrotation
                        JOINT RightHandMiddle4
                        {
                          OFFSET -3.00024 2e-06 -4e-06
                          CHANNELS 3 Zrotation Yrotation Xrotation
                          JOINT RightHandMiddleEnd
                          {
                            OFFSET -2.321477 -4e-06 -4e-06
                            CHANNELS 3 Zrotation Yrotation Xrotation
                          }
                        }
                      }
                    }
                  }
                  JOINT RightHandRing1
                  {
                    OFFSET -2.885654 0.293261 -0.119232
                    CHANNELS 3 Zrotation Yrotation Xrotation
                    JOINT RightHandRing2
                    {
                      OFFSET -6.032835 -1e-06 -4e-06
                      CHANNELS 3 Zrotation Yrotation Xrotation
                      JOINT RightHandRing3
                      {
                        OFFSET -4.33881 0.0 -4e-06
                        CHANNELS 3 Zrotation Yrotation Xrotation
                        JOINT RightHandRing4
                        {
                          OFFSET -2.654903 -4e-06 -4e-06
                          CHANNELS 3 Zrotation Yrotation Xrotation
                          JOINT RightHandRingEnd
                          {
                            OFFSET -1.935122 0.0 4e-06
                            CHANNELS 3 Zrotation Yrotation Xrotation
                          }
                        }
                      }
                    }
                  }
                  JOINT RightHandPinky1
                  {
                    OFFSET -2.866241 1.503904 -0.60527
                    CHANNELS 3 Zrotation Yrotation Xrotation
                    JOINT RightHandPinky2
                    {
                      OFFSET -5.553177 -2e-06 0.0
                      CHANNELS 3 Zrotation Yrotation Xrotation
                      JOINT RightHandPinky3
                      {
                        OFFSET -3.062664 -1e-06 -4e-06
                        CHANNELS 3 Zrotation Yrotation Xrotation
                        JOINT RightHandPinky4
                        {
                          OFFSET -1.546529 2e-06 4e-06
                          CHANNELS 3 Zrotation Yrotation Xrotation
                          JOINT RightHandPinkyEnd
                          {
                            OFFSET -1.952341 0.0 -4e-06
                            CHANNELS 3 Zrotation Yrotation Xrotation
                          }
                        }
                      }
                    }
                  }
                }
              }
            }
          }
        }
      }
    }
    JOINT LeftLeg
    {
      OFFSET -8.443107 2.567604 10.043214
      CHANNELS 3 Zrotation Yrotation Xrotation
      JOINT LeftShin
      {
        OFFSET 43.229198 1e-06 -1e-06
        CHANNELS 3 Zrotation Yrotation Xrotation
        JOINT LeftFoot
        {
          OFFSET 42.298611 1e-06 1e-06
          CHANNELS 3 Zrotation Yrotation Xrotation
          JOINT LeftToeBase
          {
            OFFSET 14.165858 1e-06 0.0
            CHANNELS 3 Zrotation Yrotation Xrotation
            JOINT LeftToeEnd
            {
              OFFSET 6.7141 -0.234461 0.0
              CHANNELS 3 Zrotation Yrotation Xrotation
            }
          }
        }
      }
    }
    JOINT RightLeg
    {
      OFFSET -8.303923 2.592729 -10.047278
      CHANNELS 3 Zrotation Yrotation Xrotation
      JOINT RightShin
      {
        OFFSET -43.369682 0.0 1e-06
        CHANNELS 3 Zrotation Yrotation Xrotation
        JOINT RightFoot
        {
          OFFSET -42.260784 4e-06 2e-06
          CHANNELS 3 Zrotation Yrotation Xrotation
          JOINT RightToeBase
          {
            OFFSET -14.222245 -2e-06 -1e-06
            CHANNELS 3 Zrotation Yrotation Xrotation
            JOINT RightToeEnd
            {
              OFFSET -6.660062 0.232574 -2e-06
              CHANNELS 3 Zrotation Yrotation Xrotation
            }
          }
        }
      }
    }
  }
}
MOTION
Frames: 4
Frame Time: 0.03333333333333333
0.0 0.0 0.0 0.0 -0.0 0.0 -1.021862 48.033836 0.178544 88.896233 -50.331917 89.868553 12.389184 -0.235211 -0.595025 -3.924466 -0.581143 -0.966454 25.381866 1.924322 -2.270938 17.931791 -2.002795 2.441176 -2.843172 -0.490923 0.819199 -34.107101 -0.137995 1.077716 6e-06 -0.0 0.0 -0.11045 0.060869 -0.036772 0.126957 0.0279 0.016227 0.122539 0.094289 -0.085442 -32.130161 -73.052086 37.89859 80.248337 -5.952065 -22.12262 13.358254 -1.434489 0.128153 1.042755 66.735817 1.575872 17.636629 -26.322735 52.411182 -19.466663 -14.395598 29.410389 -1e-06 -8.774821 -1e-06 16.356827 -17.674818 6.457417 -0.609776 -1.795654 -3.889327 -4.80709 -11.04681 -2.937851 4e-06 -20.976019 0.0 -5.019972 -25.03356 -4.031878 6e-06 -1e-06 2e-06 -10.634533 -5.686971 -3.565587 10.573272 -17.922955 -3.113901 3e-06 -13.821209 1e-06 -0.501778 -31.181507 -4.027013 -10.916994 -60.045948 7.821163 -13.982713 -7.150198 -2.875041 13.772731 -8.401491 -3.218241 0.347732 -34.211555 0.771656 -0.963029 -17.73337 2.621019 0.0 -0.0 0.0 -17.346415 -20.095217 -4.201779 21.757557 -1.638374 3.866425 1e-06 -6.338825 0.0 -1.69759 -22.591747 -6.194005 0.0 -4e-06 -2e-06 177.824692 -77.391914 8.744416 89.736389 -1.583638 -18.817204 9.652824 -0.406648 0.068153 -26.53928 68.487793 -31.747355 22.182116 -20.375893 49.9333 -16.701803 -16.743526 28.476519 -1e-06 -12.690598 -2e-06 16.57642 -17.962311 2.546191 -0.105918 -1.513855 -4.275878 -5.03904 -5.61287 -2.953555 3e-06 -11.02052 -2e-06 -6.111296 -15.89533 -3.840469 -1e-06 1e-06 -1e-06 -10.283368 -5.680286 -4.341836 11.028292 -11.302404 -2.372632 -1.38427 -14.238579 -6.320117 -0.625439 -26.924183 -3.827603 -4.053158 -48.835205 -4.422387 -13.708524 -7.363475 -3.720936 18.141146 -14.052737 -3.242671 2e-06 -18.78727 -0.0 -0.429712 -8.456043 2.555503 -0.0 -1e-06 1e-06 -15.923534 -20.094481 -5.47358 30.419205 -7.190824 1.735928 2e-06 -8.162925 0.0 -1.861905 -22.861469 -6.167938 -0.0 -3e-06 1e-06 112.674995 -9.89978 10.489632 126.599716 -0.287747 0.360395 -82.895729 17.835236 11.660547 -41.990845 1.809485 1.134395 -0.999999 -0.0 -0.0 -53.15736 -5.589685 4.986747 115.350311 -0.752709 0.125499 -84.542862 15.718509 16.466496 -44.680996 0.959557 1.19056 -1.000002 -1e-06 -0.0 
0.0 0.0 0.0 0.0 -0.0 0.0 -0.915058 48.004101 0.460342 88.524002 -50.434952 90.013512 12.338915 -0.141754 -0.607088 -4.007369 -0.532774 -0.913129 25.353109 1.921552 -2.121519 17.858608 -2.056608 2.2943 -2.82408 -0.468963 0.759087 -33.952118 -0.082376 1.03196 6e-06 0.0 0.0 -0.115747 0.055458 -0.040719 0.16177 0.010967 0.019247 0.152848 0.102183 -0.098755 -32.361519 -73.246742 38.452991 80.26487 -5.846419 -22.426283 13.261313 -1.460918 0.108707 2.569253 66.774925 3.145479 17.636627 -26.322721 52.411186 -19.46665 -14.395596 29.410385 -2e-06 -8.774821 -2e-06 16.360266 -17.702038 6.466001 -0.609777 -1.795652 -3.889327 -4.80709 -11.046813 -2.93785 4e-06 -20.976011 -1e-06 -5.01997 -25.033552 -4.031882 6e-06 -1e-06 0.0 -10.634533 -5.686969 -3.565587 10.573271 -17.922951 -3.113901 3e-06 -13.821209 -0.0 -0.501777 -31.181498 -4.027017 -10.773607 -60.146969 7.759203 -13.982712 -7.150198 -2.875042 13.772727 -8.401489 -3.21824 0.347734 -34.211544 0.771653 -0.963028 -17.733366 2.621019 -0.0 0.0 -0.0 -17.34642 -20.095217 -4.201782 21.757557 -1.638374 3.866429 1e-06 -6.338823 0.0 -1.697589 -22.591742 -6.194006 -0.0 -4e-06 -2e-06 177.855927 -77.373268 8.875199 89.851791 -1.64467 -19.184031 9.537305 -0.376794 0.076526 -25.644136 68.507767 -31.31427 22.182117 -20.375895 49.933319 -16.701811 -16.74353 28.476528 -3e-06 -12.6906 -0.0 16.542181 -17.949751 2.5751 -0.105921 -1.513857 -4.275882 -5.039039 -5.612869 -2.953556 5e-06 -11.02052 -2e-06 -6.111297 -15.895332 -3.84047 -0.0 -0.0 1e-06 -10.283369 -5.680285 -4.341839 11.028296 -11.302404 -2.372633 -1.384269 -14.238583 -6.32012 -0.625435 -26.924183 -3.827601 -4.04048 -48.930214 -4.352386 -13.708526 -7.363473 -3.720942 18.14115 -14.052739 -3.242674 8e-06 -18.787266 -2e-06 -0.42971 -8.456043 2.555505 0.0 -0.0 -1e-06 -15.923536 -20.094482 -5.473587 30.419214 -7.190827 1.735926 3e-06 -8.162924 0.0 -1.861904 -22.861467 -6.16794 -0.0 -4e-06 -0.0 112.914551 -10.125424 10.413673 126.316521 -0.320046 0.35405 -82.167236 17.782198 12.004694 -42.030521 1.814184 1.076941 -0.999999 0.0 -0.0 -52.911594 -5.346132 4.842639 114.89183 -0.813459 0.094217 -83.923363 15.661656 16.691263 -44.319729 0.9563 1.182865 -1.000003 -0.0 -0.0 
0.0 0.0 0.0 0.0 -0.0 0.0 -0.801512 47.991253 0.861375 88.284325 -50.526665 90.116508 12.245582 -0.084738 -0.5841 -4.075776 -0.481183 -0.862848 25.343813 1.949484 -2.026738 17.800524 -2.078977 2.172444 -2.817242 -0.522494 0.665277 -33.873451 -0.114854 0.975221 5e-06 0.0 0.0 -0.113134 0.03648 -0.035698 0.155399 -0.015201 0.020825 0.146459 0.091363 -0.093336 -32.126808 -73.366196 38.479618 80.221268 -5.822937 -22.386375 13.313952 -1.472207 0.102604 2.9357 66.715012 3.526833 17.636631 -26.322723 52.411179 -19.466656 -14.395597 29.410381 0.0 -8.774822 -2e-06 16.347889 -17.704174 6.458764 -0.609777 -1.795653 -3.889327 -4.807089 -11.046814 -2.93785 3e-06 -20.976019 0.0 -5.019971 -25.03356 -4.03188 6e-06 -0.0 0.0 -10.634533 -5.686969 -3.565587 10.573271 -17.922953 -3.113901 2e-06 -13.821209 -0.0 -0.501777 -31.181505 -4.027016 -10.696631 -60.198261 7.736194 -13.982713 -7.150198 -2.875041 13.772729 -8.401491 -3.218241 0.347732 -34.211555 0.771654 -0.963029 -17.73337 2.621018 0.0 -0.0 0.0 -17.346416 -20.095217 -4.20178 21.757555 -1.638376 3.866426 1e-06 -6.338826 1e-06 -1.697589 -22.591747 -6.194006 -0.0 -4e-06 -3e-06 178.407059 -77.320496 8.460103 89.765358 -1.760042 -19.530577 9.470414 -0.411281 0.080231 -24.924446 68.671761 -30.70878 22.182117 -20.375898 49.933327 -16.701811 -16.74353 28.476534 -4e-06 -12.690601 -1e-06 16.503086 -17.880875 2.593858 -0.10592 -1.513856 -4.275884 -5.039042 -5.612871 -2.953556 4e-06 -11.020523 -2e-06 -6.111298 -15.895334 -3.84047 -0.0 -0.0 0.0 -10.283373 -5.680288 -4.341839 11.028297 -11.302406 -2.372634 -1.384269 -14.238586 -6.320121 -0.625437 -26.924194 -3.827604 -4.004599 -48.920765 -4.290037 -13.708526 -7.363476 -3.720941 18.141151 -14.052739 -3.242675 6e-06 -18.78727 -2e-06 -0.429711 -8.456045 2.555503 0.0 -0.0 1e-06 -15.923536 -20.094486 -5.473587 30.419218 -7.190825 1.735925 3e-06 -8.162927 -1e-06 -1.861903 -22.861473 -6.16794 1e-06 -3e-06 -2e-06 113.372818 -10.28688 10.20315 125.918243 -0.345875 0.354278 -81.845924 17.538202 12.254788 -42.220543 1.814949 1.056392 -0.999999 -0.0 -1e-06 -52.492283 -5.175454 4.794678 114.288437 -0.845802 0.096136 -83.426025 15.597661 16.760612 -44.209743 0.948754 1.17956 -1.000001 -0.0 -1e-06 
0.0 0.0 0.0 0.0 -0.0 0.0 -0.705134 47.99337 1.197448 88.081474 -50.668499 90.228256 12.140083 -0.039977 -0.556937 -4.13841 -0.44692 -0.827834 25.298693 2.04694 -1.966952 17.716923 -2.133828 2.077906 -2.804485 -0.606712 0.575438 -33.887878 -0.177608 0.921278 5e-06 0.0 0.0 -0.109521 0.017928 -0.029119 0.135681 -0.038086 0.020153 0.128741 0.07718 -0.081446 -31.969967 -73.466606 38.520615 80.163414 -5.85861 -22.338448 13.469817 -1.488868 0.097109 3.102443 66.796402 3.931337 17.636631 -26.322731 52.411213 -19.466665 -14.3956 29.410395 -2e-06 -8.774823 -2e-06 16.343048 -17.694057 6.436671 -0.609776 -1.795655 -3.889328 -4.80709 -11.046809 -2.937852 5e-06 -20.976021 -2e-06 -5.019969 -25.03356 -4.031885 6e-06 -0.0 -1e-06 -10.634537 -5.686971 -3.565588 10.573278 -17.922953 -3.113902 3e-06 -13.821211 1e-06 -0.501776 -31.181511 -4.027019 -10.704724 -60.231232 7.71999 -13.982718 -7.150198 -2.875042 13.772732 -8.401494 -3.218244 0.347736 -34.211555 0.771652 -0.963028 -17.73337 2.621019 0.0 -0.0 -0.0 -17.346426 -20.095221 -4.201784 21.757566 -1.638375 3.866429 1e-06 -6.338823 1e-06 -1.697589 -22.591747 -6.194009 0.0 -4e-06 -1e-06 178.88475 -77.21476 8.006783 89.652092 -2.004832 -19.796198 9.502851 -0.427814 0.08075 -24.478065 68.828583 -30.313807 22.182117 -20.375898 49.933327 -16.701813 -16.74353 28.476532 -3e-06 -12.690602 0.0 16.486568 -17.821905 2.600093 -0.105919 -1.513856 -4.275883 -5.039038 -5.612869 -2.953556 5e-06 -11.020523 -3e-06 -6.111296 -15.895334 -3.84047 -1e-06 -0.0 0.0 -10.283371 -5.680289 -4.341839 11.028296 -11.302404 -2.372634 -1.384268 -14.238585 -6.320122 -0.625438 -26.924194 -3.827604 -3.960113 -48.909309 -4.240921 -13.708526 -7.363477 -3.72094 18.141153 -14.052741 -3.242676 5e-06 -18.78727 -3e-06 -0.429711 -8.456043 2.555504 1e-06 0.0 1e-06 -15.923536 -20.094484 -5.473584 30.419214 -7.190824 1.735924 2e-06 -8.162926 -1e-06 -1.861903 -22.861471 -6.167942 -0.0 -3e-06 0.0 113.674644 -10.357672 10.06532 125.588646 -0.36169 0.351799 -81.695442 17.320677 12.462075 -42.616386 1.816619 1.048661 -0.999998 -0.0 -1e-06 -52.200527 -5.014965 4.812469 113.802048 -0.835782 0.093468 -83.259773 15.418163 16.680029 -44.28936 0.941386 1.18132 -1.000002 -0.0 -0.0 
